<?xml version="1.0" encoding="utf-8"?>
<!-- Generator: Adobe Illustrator 16.0.0, SVG Export Plug-In . SVG Version: 6.00 Build 0)  -->
<!DOCTYPE svg PUBLIC "-//W3C//DTD SVG 1.1//EN" "http://www.w3.org/Graphics/SVG/1.1/DTD/svg11.dtd">
<svg version="1.1" xmlns="http://www.w3.org/2000/svg" xmlns:xlink="http://www.w3.org/1999/xlink" x="0px" y="0px" width="4000px"
	 height="1500px" viewBox="0 0 4000 1500" enable-background="new 0 0 4000 1500" xml:space="preserve">
<g id="DO_DEALS">
	<text transform="matrix(1.0011 0 0 1 512.0977 841.501)" fill="#04FDA1" font-family="'Exo2-Bold'" font-size="901.4124">DOOZO</text>
</g>
<g id="Layer_3">
	<text transform="matrix(1.0011 0 0 1 589.0894 1271.2441)" font-family="'Exo2-Bold'" font-size="263.9107">GROCERY | ESSENTIALS</text>
</g>
<g id="Layer_4">
	<text transform="matrix(0.013 1.3426 -1 0.0097 1644.6392 895.4141)" font-family="'Tunga'" font-size="403.526">)</text>
</g>
<g id="Ellipse_1_1_" enable-background="new    ">
	<g id="Ellipse_1_8_">
		<g>
			<path fill-rule="evenodd" clip-rule="evenodd" d="M1597.784,669.234c-41.65,0-75.419,36.176-75.419,80.807
				c0,44.626,33.769,80.805,75.419,80.805c41.653,0,75.418-36.179,75.418-80.805C1673.202,705.41,1639.437,669.234,1597.784,669.234
				z"/>
		</g>
	</g>
	<g id="Ellipse_1_6_">
		<g>
			<path fill-rule="evenodd" clip-rule="evenodd" d="M1901.234,668.222c-41.454,0-75.063,36.004-75.063,80.424
				c0,44.417,33.61,80.423,75.063,80.423c41.457,0,75.063-36.006,75.063-80.423C1976.296,704.226,1942.69,668.222,1901.234,668.222z
				"/>
		</g>
	</g>
</g>
</svg>
